#!OML:ASF F:\VICON\USERDATA\INSTALL\rory3\rory3.ASF
:FULLY-SPECIFIED
:DEGREES
582
root 14.7864 18.1863 -14.5796 7.29323 20.1922 3.23635
lowerback 12.5758 1.42469 -1.8848
upperback 2.04959 1.59558 -1.00629
thorax -4.91767 0.81676 -0.255654
lowerneck -13.1128 -1.17764 -12.3231
upperneck 43.0503 1.67741 3.24545
head 18.3492 -0.717735 4.14866
rclavicle 6.41081e-015 2.3059e-014
rhumerus -28.5477 -9.09643 -81.8906
rradius 41.2541
rwrist 3.36808
rhand -16.784 8.18851
rfingers 7.12502
rthumb 9.44373 -21.5799
lclavicle 6.41081e-015 2.3059e-014
lhumerus -32.027 6.85737 81.8853
lradius 35.4724
lwrist -5.63216
lhand -15.2298 24.8511
lfingers 7.12502
lthumb 10.9432 54.5459
rfemur -16.0381 -4.62615 23.5817
rtibia 26.8573
rfoot -13.2667 -9.98862
rtoes 12.0629
lfemur -17.5492 5.96826 -20.1604
ltibia 45.0236
lfoot -7.39342 9.38335
ltoes -0.426032
583
root 14.7938 18.1777 -14.6353 7.18055 20.5946 3.26696
lowerback 12.4567 1.30195 -2.05776
upperback 2.04225 1.41993 -0.888411
thorax -4.86481 0.733886 -0.0029274
lowerneck -13.1046 -1.16275 -12.3599
upperneck 43.0786 1.74374 3.17575
head 18.3602 -0.70769 4.13471
rclavicle 2.67365e-014 -2.18663e-015
rhumerus -28.9304 -9.17724 -81.8624
rradius 40.8661
rwrist 3.62567
rhand -16.8732 7.94803
rfingers 7.12502
rthumb 9.3577 -21.8243
lclavicle 2.67365e-014 -2.18663e-015
lhumerus -31.9364 6.91015 82.0478
lradius 35.8481
lwrist -5.45666
lhand -15.4135 25.5712
lfingers 7.12502
lthumb 10.7659 55.2753
rfemur -16.3079 -4.81924 23.4976
rtibia 27.3514
rfoot -13.1802 -10.2643
rtoes 10.9073
lfemur -16.3031 6.86386 -20.2241
ltibia 43.8632
lfoot -7.03644 10.5802
ltoes 0.937976
584
root 14.8011 18.1646 -14.6909 7.05404 21.0985 3.32242
lowerback 12.3162 1.15706 -2.25447
upperback 2.10248 1.21512 -0.760593
thorax -4.72732 0.636197 0.279014
lowerneck -13.2311 -1.17828 -12.3595
upperneck 43.1808 1.77691 3.10767
head 18.4581 -0.710467 4.11607
rclavicle -2.4699e-014 2.26615e-014
rhumerus -29.2502 -9.43355 -81.7542
rradius 40.6703
rwrist 3.47554
rhand -16.1531 7.40501
rfingers 7.12502
rthumb 10.0525 -22.3349
lclavicle -2.4699e-014 2.26615e-014
lhumerus -31.6898 7.03789 82.2268
lradius 36.147
lwrist -5.48371
lhand -15.4246 25.9618
lfingers 7.12502
lthumb 10.7552 55.6665
rfemur -16.6082 -5.17266 23.3966
rtibia 27.9455
rfoot -13.5571 -10.5754
rtoes 11.3443
lfemur -15.0287 7.69041 -20.2953
ltibia 42.5981
lfoot -6.54778 11.71
ltoes 2.2252
585
root 14.8083 18.1494 -14.7487 6.95718 21.6389 3.47532
lowerback 12.2414 1.01081 -2.4949
upperback 2.13027 0.998352 -0.675254
thorax -4.65737 0.533197 0.540454
lowerneck -13.3411 -1.18825 -12.4441
upperneck 43.2857 1.80648 3.13242
head 18.5515 -0.715856 4.15669
rclavicle 1.60022e-014 1.70955e-014
rhumerus -29.5841 -9.64007 -81.6532
rradius 40.4203
rwrist 3.06616
rhand -15.4645 6.58925
rfingers 7.12502
rthumb 10.7167 -23.1174
lclavicle 1.60022e-014 1.70955e-014
lhumerus -31.4722 7.1413 82.4131
lradius 36.419
lwrist -5.58695
lhand -15.4575 26.374
lfingers 7.12502
lthumb 10.7235 56.0803
rfemur -16.954 -5.52045 23.1875
rtibia 28.6446
rfoot -13.8506 -10.8622
rtoes 11.746
lfemur -13.7676 8.31336 -20.4498
ltibia 41.2275
lfoot -6.04078 12.6152
ltoes 2.91121
586
root 14.8156 18.1316 -14.8105 6.91385 22.1917 3.71442
lowerback 12.2794 0.791018 -2.80067
upperback 2.09792 0.670096 -0.602291
thorax -4.70693 0.377559 0.841327
lowerneck -13.5112 -1.15009 -12.6277
upperneck 43.3684 1.9517 3.15306
head 18.6347 -0.69282 4.23321
rclavicle 6.84813e-014 1.33186e-014
rhumerus -29.8731 -9.74881 -81.5848
rradius 40.0545
rwrist 2.701
rhand -14.7859 6.01271
rfingers 7.12502
rthumb 11.3712 -23.659
lclavicle 6.84813e-014 1.33186e-014
lhumerus -31.4353 7.48599 82.4761
lradius 36.7645
lwrist -5.6581
lhand -15.2153 26.542
lfingers 7.12502
lthumb 10.9571 56.2361
rfemur -17.4276 -5.80636 22.8836
rtibia 29.4813
rfoot -14.029 -11.1982
rtoes 11.7878
lfemur -12.5782 8.75096 -20.7085
ltibia 39.7674
lfoot -5.40814 13.4366
ltoes 2.6834
587
root 14.824 18.1117 -14.8719 6.90271 22.8381 3.96446
lowerback 12.2598 0.778136 -2.95735
upperback 1.99923 0.625249 -0.719066
thorax -4.79849 0.35916 0.814079
lowerneck -13.2312 -1.29633 -12.2493
upperneck 43.3784 1.54922 3.17112
head 18.6074 -0.7835 4.09873
rclavicle 3.8763e-014 3.18055e-015
rhumerus -30.677 -10.9479 -81.3531
rradius 39.7364
rwrist 3.09169
rhand -14.4699 6.30874
rfingers 7.12502
rthumb 11.676 -23.3459
lclavicle 3.8763e-014 3.18055e-015
lhumerus -31.4582 6.7451 82.5313
lradius 37.192
lwrist -5.40414
lhand -14.9964 26.2559
lfingers 7.12502
lthumb 11.1682 55.9387
rfemur -17.9931 -6.20672 22.581
rtibia 30.425
rfoot -14.1889 -11.5005
rtoes 11.3488
lfemur -11.4057 8.97635 -20.9944
ltibia 38.1961
lfoot -5.16242 14.1961
ltoes -0.380313
588
root 14.8345 18.082 -14.9318 6.91309 23.5998 4.14497
lowerback 12.1331 0.565679 -3.16662
upperback 2.0057 0.328225 -0.612191
thorax -4.71234 0.216073 1.09284
lowerneck -13.2513 -1.26046 -12.2082
upperneck 43.3213 1.60279 3.14058
head 18.5703 -0.755409 4.08369
rclavicle 2.6985e-014 -5.96354e-015
rhumerus -31.3069 -11.3744 -81.0601
rradius 39.4813
rwrist 4.00992
rhand -14.6617 7.1682
rfingers 7.12502
rthumb 11.4911 -22.4968
lclavicle 2.6985e-014 -5.96354e-015
lhumerus -31.3365 6.65835 82.7182
lradius 37.6891
lwrist -5.25557
lhand -14.7008 26.0898
lfingers 7.12502
lthumb 11.4534 55.7569
rfemur -18.6296 -6.71464 22.353
rtibia 31.4703
rfoot -14.4414 -11.7451
rtoes 11.1434
lfemur -10.2976 9.09924 -21.2112
ltibia 36.5734
lfoot -5.54082 14.8266
ltoes -7.19
589
root 14.845 18.0492 -14.99 6.95621 24.4595 4.34152
lowerback 11.9117 0.379947 -3.34577
upperback 2.01698 0.0725644 -0.551829
thorax -4.56726 0.0913108 1.2982
lowerneck -13.1804 -1.24644 -12.0328
upperneck 43.2558 1.56572 3.10976
head 18.5116 -0.738968 4.02661
rclavicle -3.62285e-014 9.54166e-015
rhumerus -31.903 -11.9273 -80.8003
rradius 39.3707
rwrist 4.45267
rhand -14.6115 7.47
rfingers 7.12502
rthumb 11.5394 -22.1923
lclavicle -3.62285e-014 9.54166e-015
lhumerus -31.1799 6.17848 82.9655
lradius 38.2189
lwrist -5.26466
lhand -14.7443 26.6389
lfingers 7.12502
lthumb 11.4113 56.3084
rfemur -19.28 -7.29503 22.114
rtibia 32.5789
rfoot -14.911 -12.0284
rtoes 11.8417
lfemur -9.23309 9.15717 -21.4211
ltibia 34.8575
lfoot -6.26998 15.2991
ltoes -14.568
590
root 14.8541 18.0123 -15.0505 6.95449 25.3821 4.50011
lowerback 11.7685 0.0974569 -3.53681
upperback 2.03224 -0.311064 -0.40803
thorax -4.45174 -0.0959417 1.61536
lowerneck -13.2595 -1.18107 -12.2067
upperneck 43.2274 1.70489 3.18493
head 18.4978 -0.699799 4.11902
rclavicle 5.86912e-014 -1.41137e-014
rhumerus -32.1999 -12.1186 -80.6164
rradius 39.1067
rwrist 4.26533
rhand -14.3159 6.9046
rfingers 7.12502
rthumb 11.8245 -22.7416
lclavicle 5.86912e-014 -1.41137e-014
lhumerus -31.1442 5.73307 83.2941
lradius 38.9461
lwrist -4.90125
lhand -15.0722 27.7727
lfingers 7.12502
lthumb 11.0951 57.4594
rfemur -19.9078 -7.85408 21.9143
rtibia 33.732
rfoot -15.4879 -12.3654
rtoes 12.743
lfemur -8.21041 9.06241 -21.5897
ltibia 33.0262
lfoot -7.30745 15.3068
ltoes -19.0301
